PathFileType	4	(X/Y/Z)	C:/Users/beibeiliu/ov580/test_trc/User3\sequence.7_training_dense_right.trc
DataRate	CameraRate	NumFrames	NumMarkers	Units	OrigDataRate	OrigDataStartFrame	OrigNumFrames
120	120	10	19	mm	120	30	236
Frame#	Time	ThumbCMC			ThumbMCP			ThumbIP			ThumbTip			IndexMCP			IndexPIP			IndexTip			MiddleMCP			MiddlePIP			MiddleTip			RingMCP			RingPIP			RingTip			PinkyMCP			PinkyPIP			PinkyTip			BackHand1			BackHand2			BackHand3	
		X0	Y0	Z0	X1	Y1	Z1	X2	Y2	Z2	X3	Y3	Z3	X4	Y4	Z4	X5	Y5	Z5	X6	Y6	Z6	X7	Y7	Z7	X8	Y8	Z8	X9	Y9	Z9	X10	Y10	Z10	X11	Y11	Z11	X12	Y12	Z12	X13	Y13	Z13	X14	Y14	Z14	X15	Y15	Z15	X16	Y16	Z16	X17	Y17	Z17	X18	Y18	Z18	
29	0.241667	128.393	-43.4114	34.9948	116.314	-61.8133	8.13579	119.816	-80.7896	-19.8168	143.166	-95.1272	-28.9685	162.241	-38.4601	-39.0219	164.682	-41.57	-60.5686	170.452	-48.3838	-84.3927	170.088	-67.8151	-36.4424	155.43	-95.3261	-28.8959	144.92	-80.3234	7.47405	181.806	-77.2831	-19.2382	164.001	-101.117	-7.3062	155.319	-83.5711	19.9948	193.555	-82.4109	-6.70674	174.81	-102.735	4.13037	168.291	-90.3265	29.3309	191.016	-35.5411	17.7237	190.229	-30.7561	51.7587	155.976	-21.799	29.9034	
30	0.25	127.249	-45.7014	32.5633	116.222	-66.1388	7.85183	120.869	-86.7309	-12.8137	139.36	-102.44	-21.4261	158.651	-45.7561	-37.651	167.989	-55.5372	-60.1684	172.856	-62.3655	-81.4751	170.101	-75.9104	-31.8003	154.763	-103.987	-23.171	147.55	-87.8642	11.4536	181.423	-86.3703	-16.3037	163.082	-107.127	-2.55243	158.21	-86.5219	26.7764	191.846	-88.4696	-3.01933	173.018	-105.369	7.43617	165.825	-92.8887	31.6343	191.983	-40.6522	19.4216	188.317	-33.5135	48.8276	158.154	-24.5888	28.5316	
31	0.258333	127.411	-48.2539	35.0511	116.407	-72.3178	9.17973	120.474	-93.5371	-8.88587	139.715	-112.85	-17.5528	161.215	-55.1457	-32.6845	166.382	-65.9725	-59.502	174.021	-77.8929	-79.7613	169.844	-85.5977	-28.9953	155.116	-111.925	-17.3814	143.809	-91.239	17.6379	178.15	-93.92	-11.7112	163.107	-113.036	6.11702	152.866	-94.3597	29.1873	192.808	-96.0501	2.72541	173.266	-111.112	13.4659	162.868	-94.066	35.8583	189.784	-44.9742	18.5399	186.637	-32.2313	49.7363	160.957	-29.644	27.5759	
32	0.266667	123.552	-47.989	38.7474	112.424	-75.4207	12.7819	115.812	-99.6196	-6.34291	136.643	-118.181	-10.7613	157.439	-61.9812	-30.8738	160.359	-76.0921	-59.1239	165.659	-88.5363	-75.4094	165.183	-89.5918	-23.0483	146.318	-116.717	-11.1456	143.305	-96.7434	23.1554	175.697	-98.6633	-6.46525	158.233	-117.885	10.6369	152.281	-95.9985	37.4637	189.093	-99.7012	6.29868	172.134	-117.625	22.1236	161.394	-94.732	42.2362	191.552	-48.7126	20.2748	190.014	-38.599	48.9144	160.746	-33.4683	24.3919	
33	0.275	123.454	-49.7348	40.1077	106.671	-74.4028	21.2947	108.656	-101.113	3.6202	128.603	-122.87	-5.33632	150.766	-69.1587	-33.7795	154.526	-82.7971	-53.2797	161.325	-99.2119	-70.6318	160.99	-96.4071	-17.142	140.545	-121.397	-4.15362	135.596	-98.9909	27.5301	168.998	-107.297	-1.43169	153.438	-121.753	18.5657	149.386	-101.111	43.0009	182.052	-107.507	10.0186	164.949	-120.433	27.5776	157.037	-98.0554	51.8304	188.045	-51.6278	18.7424	186.479	-39.8887	45.2669	154.377	-33.8977	27.0581	
34	0.283333	122.166	-49.7751	40.691	102.493	-74.7872	23.0308	104.844	-98.8038	11.118	119.195	-124.27	1.32806	147.223	-74.4131	-27.0631	145.741	-89.4407	-53.5529	149.58	-104.529	-67.7973	145.753	-101.636	-15.9887	130.585	-121.844	2.23592	132.114	-94.5937	33.6632	159.159	-107.538	1.5453	145.389	-122.116	22.5142	139.171	-96.0781	47.6481	173.156	-110.256	13.9103	156.609	-120.532	33.4925	149.477	-99.6184	53.1751	184.191	-57.5196	21.5098	184.002	-41.6139	48.0571	153.256	-36.9554	24.9448	
35	0.291667	120.111	-44.5682	45.8427	98.2305	-71.7815	26.3842	94.1426	-97.9029	14.3758	110.902	-119.072	9.8294	136.575	-74.1548	-29.3822	138.081	-91.0753	-45.0786	135.932	-106.586	-64.8213	136.379	-104.205	-11.9278	119.136	-119.944	10.2726	126.447	-93.6971	38.4481	151.961	-109.004	5.96267	130.825	-118.602	29.3481	134.929	-92.5603	52.6914	160.807	-113.188	16.1171	146.244	-119.363	34.101	143.441	-97.102	56.2031	177.362	-57.3268	18.4557	182.924	-41.8849	48.5052	153.871	-36.3936	26.024	
36	0.3	117.123	-40.9892	44.0368	94.6433	-64.0065	33.6459	87.5645	-94.2153	16.4018	99.1043	-116.328	13.8828	130.935	-73.3006	-24.5134	124.834	-87.6836	-45.0989	124.259	-106.776	-59.6634	122.775	-99.0927	-9.14054	107.194	-113.767	13.2278	115.452	-83.6187	41.3346	138.95	-106.306	7.84238	120.604	-113.398	34.1618	125.941	-86.8888	52.7625	153.77	-111.949	19.8997	132.618	-114.693	43.457	132.635	-94.2597	58.0159	171.228	-60.7508	19.6984	178.806	-44.7606	42.4043	151.089	-33.3905	28.3691	
37	0.308333	116.697	-34.5871	49.4562	88.023	-55.981	36.8449	77.8495	-86.4445	20.7883	88.7704	-110.299	18.246	120.607	-68.7325	-21.3336	115.618	-84.6448	-41.2039	106.155	-100.097	-61.2657	113.895	-95.9098	-6.4693	96.479	-107.806	17.8347	111.032	-79.4651	42.4283	127.597	-103.993	9.56037	108.693	-106.793	37.556	116.236	-81.4927	53.525	139.653	-111.901	23.2796	121.316	-108.78	45.802	126.782	-83.2831	59.0409	167.883	-61.5362	19.8178	179.015	-48.7162	42.0314	147.501	-34.5716	23.9261	
38	0.316667	115.64	-26.4136	50.1713	85.3753	-45.8302	39.1083	70.1429	-73.3568	24.9493	75.2094	-97.7935	23.9072	111.299	-64.7256	-23.0073	101.132	-77.0999	-42.5977	91.0438	-94.3207	-58.8904	105.043	-90.0945	-3.4671	81.636	-95.7956	18.5477	101.26	-68.0775	43.3459	110.989	-98.3988	12.7582	97.4452	-101.229	38.1344	109.221	-72.872	54.313	127.609	-106.256	24.2966	111.196	-104.839	46.3409	119.601	-79.3756	58.9076	159.738	-62.8923	20.9704	172.595	-48.628	41.3252	147.415	-31.9561	23.9696	
